<?xml version="1.0"?>
<svg xmlns="http://www.w3.org/2000/svg" xmlns:xlink="http://www.w3.org/1999/xlink" version="1.1" id="Capa_1" x="0px" y="0px" viewBox="0 0 512 512" style="enable-background:new 0 0 512 512;" xml:space="preserve" width="512px" height="512px" class="hovered-paths"><g><g>
	<g>
		<path d="M256.432,252.496l-71.743-7.972c-6.213-0.7-10.553,6.432-7.082,11.637l13.253,19.879l-13.253,19.879    c-3.27,4.908,0.374,11.683,6.252,11.683h16.54c-0.001,0.166-0.008,0.333-0.008,0.5c0,30.663,24.946,55.609,55.609,55.609    c18.103,0,35.13-8.857,45.542-23.692c0.093-0.132,0.172-0.271,0.255-0.406c0.065-0.087,0.137-0.166,0.198-0.257    c6.288-9.239,9.613-20.046,9.613-31.253C311.609,277.584,286.895,252.729,256.432,252.496z M256,348.681    c-22.376,0-40.579-18.204-40.579-40.579c0-0.167,0.014-0.334,0.016-0.501h52.61l18.462,27.237    C278.844,343.569,267.736,348.681,256,348.681z M294.745,320.202l-16.493-24.331c-1.399-2.063-3.728-3.298-6.22-3.298h-74.131    l8.243-12.364c1.682-2.525,1.682-5.813-0.001-8.337l-7.086-10.629l56.114,6.235c0.276,0.03,0.553,0.046,0.83,0.046    c22.376,0,40.579,18.204,40.579,40.579C296.579,312.249,295.956,316.319,294.745,320.202z" data-original="#000000" class="hovered-path active-path" data-old_color="#000000" fill="#28A045"/>
	</g>
</g><g>
	<g>
		<path d="M288.063,364.712h-64.125c-17.403,0-31.562,14.159-31.562,31.562v88.172c0,4.151,3.364,7.515,7.515,7.515H312.11    c4.151,0,7.515-3.364,7.515-7.515v-88.172C319.624,378.871,305.466,364.712,288.063,364.712z M261.606,379.742l-3.006,9.018    h-5.199l-3.006-9.018H261.606z M254.502,403.789h2.996l6.563,45.939L256,457.788l-8.061-8.061L254.502,403.789z M304.595,476.932    h-97.19v-80.658c0-9.116,7.417-16.532,16.532-16.532h10.615l5.742,17.226l-7.765,54.353c-0.335,2.342,0.453,4.703,2.125,6.376    l16.031,16.031c2.896,2.895,7.732,2.895,10.628,0l16.031-16.031c1.672-1.673,2.46-4.035,2.125-6.376l-7.765-54.353l5.743-17.226    h10.615c9.116,0,16.532,7.417,16.532,16.532V476.932z" data-original="#000000" class="hovered-path active-path" data-old_color="#000000" fill="#28A045"/>
	</g>
</g><g>
	<g>
		<path d="M511.989,227.722c-0.118-4.004-3.498-7.291-7.504-7.291H360.203c-4.086,0-7.515,3.427-7.515,7.515v96.188    c0,4.151,3.364,7.515,7.515,7.515h21.041c4.151,0,7.515-3.364,7.515-7.515s-3.364-7.515-7.515-7.515h-13.526v-73.309    l60.013,46.676c2.682,2.087,6.545,2.087,9.227,0l60.012-46.676v73.309h-81.659c-4.151,0-7.515,3.364-7.515,7.515    s3.364,7.515,7.515,7.515h89.174c4.151,0,7.515-3.364,7.515-7.515v-96.188C512,227.87,511.991,227.797,511.989,227.722z     M432.344,274.534l-50.239-39.074h100.478L432.344,274.534z" data-original="#000000" class="hovered-path active-path" data-old_color="#000000" fill="#28A045"/>
	</g>
</g><g>
	<g>
		<path d="M257.002,20.039c-43.37,0-78.654,35.284-78.654,78.654s35.284,78.654,78.654,78.654c4.151,0,7.515-3.364,7.515-7.515    c0-4.151-3.364-7.515-7.515-7.515c-35.083,0-63.624-28.542-63.624-63.624s28.542-63.624,63.624-63.624    c37.461,0,63.624,24.073,63.624,58.543c0,27.948-19.419,35.474-30.703,37.488V63.123c0-4.151-3.364-7.515-7.515-7.515    s-7.515,3.364-7.515,7.515v3.694c-5.156-3.87-11.298-6.128-17.892-6.128c-18.152,0-32.921,17.048-32.921,38.003    c0,20.955,14.769,38.003,32.921,38.003c6.595,0,12.737-2.258,17.892-6.128v8.775c0,4.151,3.364,7.515,7.515,7.515    c2.777,0,17.313-0.423,30.66-8.764c10.304-6.441,22.587-19.384,22.587-44.482C335.656,50.981,302.577,20.039,257.002,20.039z     M257.002,121.667c-9.866,0-17.892-10.306-17.892-22.974s8.027-22.974,17.892-22.974c9.865,0,17.892,10.306,17.892,22.974    S266.868,121.667,257.002,121.667z" data-original="#000000" class="hovered-path active-path" data-old_color="#000000" fill="#28A045"/>
	</g>
</g><g>
	<g>
		<path d="M111.718,164.321H31.562C14.159,164.321,0,178.48,0,195.883v160.313c0,17.403,14.159,31.562,31.562,31.562h80.157    c17.403,0,31.562-14.159,31.562-31.562V195.883C143.28,178.48,129.121,164.321,111.718,164.321z M31.562,179.35h80.157    c6.409,0,11.964,3.673,14.707,9.018H16.855C19.597,183.023,25.153,179.35,31.562,179.35z M128.25,356.196    c0,9.116-7.417,16.532-16.532,16.532H31.562c-9.116,0-16.532-7.417-16.532-16.532v-8.517H128.25V356.196z M128.25,332.65H15.029    V203.397H128.25V332.65z" data-original="#000000" class="hovered-path active-path" data-old_color="#000000" fill="#28A045"/>
	</g>
</g><g>
	<g>
		<path d="M72.141,352.689h-1.002c-4.151,0-7.515,3.364-7.515,7.515c0,4.151,3.364,7.515,7.515,7.515h1.002    c4.151,0,7.515-3.364,7.515-7.515C79.656,356.052,76.292,352.689,72.141,352.689z" data-original="#000000" class="hovered-path active-path" data-old_color="#000000" fill="#28A045"/>
	</g>
</g><g>
	<g>
		<path d="M305.671,156.161c-2.002-0.653-4.032-1.273-6.033-1.84c-3.994-1.13-8.148,1.188-9.279,5.181    c-1.132,3.993,1.188,8.147,5.181,9.279c1.812,0.514,3.652,1.074,5.47,1.667c0.774,0.253,1.56,0.373,2.332,0.373    c3.164,0,6.109-2.015,7.143-5.186C311.772,161.69,309.618,157.448,305.671,156.161z" data-original="#000000" class="hovered-path active-path" data-old_color="#000000" fill="#28A045"/>
	</g>
</g><g>
	<g>
		<path d="M346.493,176.36c-4.17-2.869-8.523-5.569-12.936-8.023c-3.628-2.017-8.203-0.711-10.219,2.916s-0.711,8.203,2.916,10.219    c3.999,2.223,7.943,4.669,11.721,7.269c1.299,0.897,2.783,1.326,4.252,1.326c2.391,0,4.74-1.138,6.198-3.256    C350.777,183.392,349.912,178.713,346.493,176.36z" data-original="#000000" class="hovered-path active-path" data-old_color="#000000" fill="#28A045"/>
	</g>
</g><g>
	<g>
		<path d="M374.143,200.479c-1.406-1.542-2.865-3.081-4.336-4.574c-2.914-2.957-7.672-2.99-10.627-0.077    c-2.956,2.914-2.99,7.671-0.077,10.627c1.335,1.356,2.659,2.752,3.933,4.15c1.482,1.626,3.516,2.452,5.556,2.452    c1.808,0,3.619-0.647,5.061-1.961C376.719,208.3,376.938,203.547,374.143,200.479z" data-original="#000000" class="hovered-path active-path" data-old_color="#000000" fill="#28A045"/>
	</g>
</g><g>
	<g>
		<path d="M171.192,181.363c-2.479-3.329-7.185-4.022-10.515-1.544c-1.649,1.227-3.326,2.526-4.983,3.862    c-3.231,2.605-3.738,7.335-1.134,10.567c1.484,1.842,3.659,2.798,5.855,2.798c1.655,0,3.321-0.544,4.711-1.664    c1.506-1.213,3.027-2.393,4.521-3.504C172.978,189.4,173.67,184.693,171.192,181.363z" data-original="#000000" class="hovered-path active-path" data-old_color="#000000" fill="#28A045"/>
	</g>
</g><g>
	<g>
		<path d="M198.875,166.682c-1.742-3.767-6.212-5.409-9.975-3.662c-1.899,0.878-3.807,1.81-5.676,2.767    c-3.693,1.894-5.152,6.422-3.258,10.116c1.331,2.594,3.963,4.087,6.693,4.087c1.153,0,2.325-0.268,3.423-0.83    c1.69-0.866,3.417-1.708,5.132-2.503C198.981,174.914,200.62,170.448,198.875,166.682z" data-original="#000000" class="hovered-path active-path" data-old_color="#000000" fill="#28A045"/>
	</g>
</g><g>
	<g>
		<path d="M179.546,431.075c-1.609-1.003-3.222-2.052-4.792-3.117c-3.433-2.328-8.107-1.436-10.438,1.998    c-2.331,3.435-1.436,8.108,1.998,10.438c1.732,1.175,3.51,2.332,5.285,3.439c3.48,2.166,8.187,1.068,10.352-2.405    C184.145,437.905,183.069,433.27,179.546,431.075z" data-original="#000000" class="hovered-path active-path" data-old_color="#000000" fill="#28A045"/>
	</g>
</g><g>
	<g>
		<path d="M161.768,418.024c-2.064-1.77-4.1-3.619-6.054-5.496c-2.994-2.876-7.749-2.778-10.625,0.212    c-2.876,2.993-2.779,7.75,0.212,10.625c2.156,2.071,4.405,4.112,6.68,6.066c3.109,2.667,7.932,2.295,10.597-0.811    C165.281,425.472,164.918,420.727,161.768,418.024z" data-original="#000000" class="hovered-path active-path" data-old_color="#000000" fill="#28A045"/>
	</g>
</g><g>
	<g>
		<path d="M144.574,400.554c-1.216-1.465-2.416-2.968-3.566-4.468c-2.525-3.295-7.242-3.921-10.536-1.395    c-3.294,2.525-3.919,7.242-1.395,10.536c1.268,1.655,2.592,3.314,3.934,4.93c2.616,3.15,7.432,3.595,10.583,0.98    C146.788,408.486,147.226,403.748,144.574,400.554z" data-original="#000000" class="hovered-path active-path" data-old_color="#000000" fill="#28A045"/>
	</g>
</g><g>
	<g>
		<path d="M402.695,349.854c-3.929-1.329-8.197,0.776-9.528,4.709c-0.609,1.802-1.263,3.61-1.939,5.374    c-1.485,3.876,0.451,8.221,4.325,9.707c3.825,1.467,8.241-0.503,9.707-4.325c0.747-1.95,1.468-3.947,2.142-5.938    C408.735,355.451,406.627,351.185,402.695,349.854z" data-original="#000000" class="hovered-path active-path" data-old_color="#000000" fill="#28A045"/>
	</g>
</g><g>
	<g>
		<path d="M373.302,405.531c-3.058-2.806-7.812-2.602-10.619,0.454c-2.445,2.664-5.026,5.272-7.667,7.749    c-3.027,2.84-3.179,7.595-0.341,10.623c2.8,2.986,7.635,3.14,10.623,0.341c2.914-2.733,5.759-5.61,8.458-8.548    C376.562,413.092,376.359,408.339,373.302,405.531z" data-original="#000000" class="hovered-path active-path" data-old_color="#000000" fill="#28A045"/>
	</g>
</g><g>
	<g>
		<path d="M392.163,376.807c-3.607-2.056-8.196-0.795-10.248,2.814c-1.79,3.145-3.723,6.261-5.743,9.261    c-2.318,3.443-1.407,8.113,2.035,10.43c3.4,2.289,8.144,1.36,10.43-2.035c2.23-3.311,4.362-6.75,6.338-10.222    C397.03,383.448,395.771,378.86,392.163,376.807z" data-original="#000000" class="hovered-path active-path" data-old_color="#000000" fill="#28A045"/>
	</g>
</g><g>
	<g>
		<path d="M348.504,429.332c-2.356-3.419-7.036-4.279-10.451-1.925c-1.564,1.076-3.168,2.137-4.771,3.151    c-3.507,2.219-4.551,6.861-2.332,10.369c2.189,3.459,6.904,4.523,10.369,2.332c1.767-1.118,3.537-2.287,5.26-3.476    C349.997,437.428,350.858,432.748,348.504,429.332z" data-original="#000000" class="hovered-path active-path" data-old_color="#000000" fill="#28A045"/>
	</g>
</g></g> </svg>
